<svg xmlns="http://www.w3.org/2000/svg" xmlns:xlink="http://www.w3.org/1999/xlink" width="500" zoomAndPan="magnify" viewBox="0 0 375 374.999991" height="500" preserveAspectRatio="xMidYMid meet" version="1.0"><defs><clipPath id="b5da3191be"><path d="M 26 27 L 368 27 L 368 369 L 26 369 Z M 26 27 " clip-rule="nonzero"/></clipPath><clipPath id="52e034648f"><path d="M -112.773438 166.695312 L 151.332031 -97.410156 L 487.5625 238.820312 L 223.457031 502.925781 Z M -112.773438 166.695312 " clip-rule="nonzero"/></clipPath><clipPath id="25537e9e65"><path d="M -112.773438 166.695312 L 151.332031 -97.410156 L 487.5625 238.820312 L 223.457031 502.925781 Z M -112.773438 166.695312 " clip-rule="nonzero"/></clipPath><clipPath id="769b09d384"><path d="M 178 179 L 242 179 L 242 243 L 178 243 Z M 178 179 " clip-rule="nonzero"/></clipPath><clipPath id="9b6d8dcbee"><path d="M -112.773438 166.695312 L 151.332031 -97.410156 L 487.5625 238.820312 L 223.457031 502.925781 Z M -112.773438 166.695312 " clip-rule="nonzero"/></clipPath><clipPath id="fef7cd8de1"><path d="M -112.773438 166.695312 L 151.332031 -97.410156 L 487.5625 238.820312 L 223.457031 502.925781 Z M -112.773438 166.695312 " clip-rule="nonzero"/></clipPath><clipPath id="bff9dd73f0"><path d="M 16 17 L 233 17 L 233 236 L 16 236 Z M 16 17 " clip-rule="nonzero"/></clipPath><clipPath id="2015e28338"><path d="M -112.773438 166.695312 L 151.332031 -97.410156 L 487.5625 238.820312 L 223.457031 502.925781 Z M -112.773438 166.695312 " clip-rule="nonzero"/></clipPath><clipPath id="b416907568"><path d="M -112.773438 166.695312 L 151.332031 -97.410156 L 487.5625 238.820312 L 223.457031 502.925781 Z M -112.773438 166.695312 " clip-rule="nonzero"/></clipPath><clipPath id="ec98bdb655"><path d="M 84 95 L 369 95 L 369 367 L 84 367 Z M 84 95 " clip-rule="nonzero"/></clipPath><clipPath id="4bd3eaca7e"><path d="M -112.773438 166.695312 L 151.332031 -97.410156 L 487.5625 238.820312 L 223.457031 502.925781 Z M -112.773438 166.695312 " clip-rule="nonzero"/></clipPath><clipPath id="55a26681d4"><path d="M -112.773438 166.695312 L 151.332031 -97.410156 L 487.5625 238.820312 L 223.457031 502.925781 Z M -112.773438 166.695312 " clip-rule="nonzero"/></clipPath></defs><g clip-path="url(#b5da3191be)"><g clip-path="url(#52e034648f)"><g clip-path="url(#25537e9e65)"><path fill="#c197d2" d="M 183.226562 45.148438 L 203.566406 204.824219 L 43.882812 184.492188 L 26.472656 27.734375 Z M 367.257812 218.960938 L 344.460938 95.765625 L 254.054688 139.832031 L 232.484375 188.410156 Z M 186.882812 234.085938 L 138.746094 256.65625 L 84.976562 364.441406 L 220.167969 368.238281 Z M 186.882812 234.085938 " fill-opacity="1" fill-rule="nonzero"/></g></g></g><g clip-path="url(#769b09d384)"><g clip-path="url(#9b6d8dcbee)"><g clip-path="url(#fef7cd8de1)"><path fill="#e6ad23" d="M 240.421875 195.777344 C 245.300781 201.738281 234.640625 202.480469 217.601562 219.679688 C 201.167969 236.253906 200.421875 246.296875 194.601562 241.597656 C 185.734375 234.339844 170.488281 196.800781 183.050781 184.222656 C 195.613281 171.644531 233.097656 186.90625 240.421875 195.777344 Z M 240.421875 195.777344 " fill-opacity="1" fill-rule="nonzero"/></g></g></g><g clip-path="url(#bff9dd73f0)"><g clip-path="url(#2015e28338)"><g clip-path="url(#b416907568)"><path fill="#613659" d="M 146.792969 102.722656 L 142.25 17.007812 L 213.566406 54.289062 L 232.5625 188.492188 Z M 102.367188 149.570312 L 16.644531 145.019531 L 53.917969 216.34375 L 188.128906 235.332031 Z M 102.367188 149.570312 " fill-opacity="1" fill-rule="nonzero"/></g></g></g><g clip-path="url(#ec98bdb655)"><g clip-path="url(#4bd3eaca7e)"><g clip-path="url(#55a26681d4)"><path fill="#d3b1c2" d="M 232.519531 188.449219 L 368.699219 237.570312 L 362.222656 363.949219 L 239.644531 366.621094 L 186.894531 234.070312 Z M 254.054688 139.832031 L 344.460938 95.765625 L 247.128906 119.855469 L 232.476562 188.417969 Z M 186.882812 234.085938 L 128.296875 240.464844 L 84.976562 364.441406 L 138.761719 256.671875 Z M 186.882812 234.085938 " fill-opacity="1" fill-rule="nonzero"/></g></g></g></svg>