<svg xmlns="http://www.w3.org/2000/svg" xmlns:xlink="http://www.w3.org/1999/xlink" width="1000" zoomAndPan="magnify" viewBox="0 0 750 112.499997" height="150" preserveAspectRatio="xMidYMid meet" version="1.0"><defs><g/><clipPath id="566f412c11"><path d="M 282 15 L 354 15 L 354 93 L 282 93 Z M 282 15 " clip-rule="nonzero"/></clipPath><clipPath id="9deb4c125a"><path d="M 250.800781 43.453125 L 311.816406 -9.273438 L 379.191406 68.691406 L 318.171875 121.417969 Z M 250.800781 43.453125 " clip-rule="nonzero"/></clipPath><clipPath id="22b99723b9"><path d="M 250.800781 43.453125 L 311.816406 -9.273438 L 379.191406 68.691406 L 318.171875 121.417969 Z M 250.800781 43.453125 " clip-rule="nonzero"/></clipPath><clipPath id="f13379ab50"><path d="M 313 51 L 327 51 L 327 65 L 313 65 Z M 313 51 " clip-rule="nonzero"/></clipPath><clipPath id="bfc536f80b"><path d="M 250.800781 43.453125 L 311.816406 -9.273438 L 379.191406 68.691406 L 318.171875 121.417969 Z M 250.800781 43.453125 " clip-rule="nonzero"/></clipPath><clipPath id="cbbe8b6ceb"><path d="M 250.800781 43.453125 L 311.816406 -9.273438 L 379.191406 68.691406 L 318.171875 121.417969 Z M 250.800781 43.453125 " clip-rule="nonzero"/></clipPath><clipPath id="03f29676b7"><path d="M 279 15 L 325 15 L 325 64 L 279 64 Z M 279 15 " clip-rule="nonzero"/></clipPath><clipPath id="3ce05ca5bd"><path d="M 250.800781 43.453125 L 311.816406 -9.273438 L 379.191406 68.691406 L 318.171875 121.417969 Z M 250.800781 43.453125 " clip-rule="nonzero"/></clipPath><clipPath id="c8f9576fd5"><path d="M 250.800781 43.453125 L 311.816406 -9.273438 L 379.191406 68.691406 L 318.171875 121.417969 Z M 250.800781 43.453125 " clip-rule="nonzero"/></clipPath><clipPath id="236a356977"><path d="M 290 35 L 354 35 L 354 94 L 290 94 Z M 290 35 " clip-rule="nonzero"/></clipPath><clipPath id="4a17b59ec0"><path d="M 250.800781 43.453125 L 311.816406 -9.273438 L 379.191406 68.691406 L 318.171875 121.417969 Z M 250.800781 43.453125 " clip-rule="nonzero"/></clipPath><clipPath id="171e494b73"><path d="M 250.800781 43.453125 L 311.816406 -9.273438 L 379.191406 68.691406 L 318.171875 121.417969 Z M 250.800781 43.453125 " clip-rule="nonzero"/></clipPath><clipPath id="708d867779"><path d="M 710 45 L 748.339844 45 L 748.339844 91 L 710 91 Z M 710 45 " clip-rule="nonzero"/></clipPath></defs><g clip-path="url(#566f412c11)"><g clip-path="url(#9deb4c125a)"><g clip-path="url(#22b99723b9)"><path fill="#c197d2" d="M 316.511719 22 L 318.453125 56.777344 L 284.320312 49.820312 L 282.96875 15.714844 Z M 353.542969 62.464844 L 350.515625 35.519531 L 330.339844 43.570312 L 324.941406 53.703125 Z M 314.402344 62.824219 L 303.675781 66.917969 L 290.425781 89.304688 L 319.527344 92.304688 Z M 314.402344 62.824219 " fill-opacity="1" fill-rule="nonzero"/></g></g></g><g clip-path="url(#f13379ab50)"><g clip-path="url(#bfc536f80b)"><g clip-path="url(#cbbe8b6ceb)"><path fill="#e6ad23" d="M 326.539062 55.421875 C 327.5 56.785156 325.191406 56.773438 321.25 60.210938 C 317.453125 63.519531 317.136719 65.675781 315.953125 64.570312 C 314.152344 62.859375 311.441406 54.515625 314.34375 52.003906 C 317.246094 49.492188 325.097656 53.386719 326.539062 55.421875 Z M 326.539062 55.421875 " fill-opacity="1" fill-rule="nonzero"/></g></g></g><g clip-path="url(#03f29676b7)"><g clip-path="url(#3ce05ca5bd)"><g clip-path="url(#c8f9576fd5)"><path fill="#613659" d="M 307.769531 33.835938 L 308.105469 15.265625 L 322.917969 24.460938 L 324.957031 53.722656 Z M 297.46875 43.226562 L 279.050781 40.863281 L 285.996094 56.851562 L 314.652344 63.113281 Z M 297.46875 43.226562 " fill-opacity="1" fill-rule="nonzero"/></g></g></g><g clip-path="url(#236a356977)"><g clip-path="url(#4a17b59ec0)"><g clip-path="url(#171e494b73)"><path fill="#d3b1c2" d="M 324.949219 53.710938 L 353.566406 66.503906 L 350.234375 93.667969 L 323.753906 92.269531 L 314.40625 62.820312 Z M 330.339844 43.570312 L 350.515625 35.519531 L 329.152344 39.148438 L 324.9375 53.703125 Z M 314.402344 62.824219 L 301.667969 63.253906 L 290.425781 89.304688 L 303.679688 66.921875 Z M 314.402344 62.824219 " fill-opacity="1" fill-rule="nonzero"/></g></g></g><g fill="#613659" fill-opacity="1"><g transform="translate(-3.036337, 83.169283)"><g><path d="M 7.71875 0 L 7.71875 -7.375 L 39.5625 -7.375 L 44.3125 -12.1875 L 44.3125 -25.09375 L 39.5625 -29.921875 L 14.5625 -29.921875 L 5.4375 -39.046875 L 5.4375 -55.453125 L 14.5625 -64.65625 L 48.953125 -64.65625 L 48.953125 -57.296875 L 18.15625 -57.296875 L 13.328125 -52.46875 L 13.421875 -41.765625 L 18.15625 -36.9375 L 43.171875 -36.9375 L 52.296875 -27.71875 L 52.296875 -9.21875 L 43.171875 0 Z M 7.71875 0 "/></g></g></g><g fill="#613659" fill-opacity="1"><g transform="translate(54.696942, 83.169283)"><g><path d="M 7.1875 -50.890625 L 7.1875 -61.234375 L 14.921875 -61.234375 L 14.921875 -50.890625 Z M 7.1875 0 L 7.1875 -45.890625 L 14.921875 -45.890625 L 14.921875 0 Z M 7.1875 0 "/></g></g></g><g fill="#613659" fill-opacity="1"><g transform="translate(76.719824, 83.169283)"><g><path d="M 7.1875 0 L 7.1875 -45.890625 L 14.921875 -45.890625 L 14.921875 -37.640625 L 22.90625 -45.890625 L 39.828125 -45.890625 L 47.90625 -37.71875 L 55.796875 -45.890625 L 72.734375 -45.890625 L 81.9375 -36.671875 L 81.9375 0 L 74.21875 0 L 74.21875 -34.75 L 69.578125 -39.75 L 57.8125 -39.75 L 48.953125 -30.796875 L 48.953125 0 L 41.234375 0 L 41.328125 -34.75 L 36.578125 -39.75 L 24.921875 -39.75 L 14.921875 -29.5625 L 14.921875 0 Z M 7.1875 0 "/></g></g></g><g fill="#613659" fill-opacity="1"><g transform="translate(165.425529, 83.169283)"><g><path d="M 15.359375 0 L 6.140625 -9.21875 L 6.140625 -36.671875 L 15.359375 -45.890625 L 37.109375 -45.890625 L 46.328125 -36.671875 L 46.328125 -9.21875 L 37.109375 0 Z M 18.6875 -6.140625 L 33.78125 -6.140625 L 38.609375 -10.96875 L 38.515625 -34.921875 L 33.78125 -39.75 L 18.6875 -39.75 L 13.859375 -34.921875 L 13.859375 -10.96875 Z M 18.6875 -6.140625 "/></g></g></g><g fill="#613659" fill-opacity="1"><g transform="translate(217.89443, 83.169283)"><g><path d="M 7.1875 0 L 7.1875 -45.890625 L 14.921875 -45.890625 L 14.921875 -37.640625 L 22.90625 -45.890625 L 39.828125 -45.890625 L 48.953125 -36.671875 L 48.953125 0 L 41.234375 0 L 41.234375 -34.75 L 36.578125 -39.75 L 24.921875 -39.75 L 14.921875 -29.5625 L 14.921875 0 Z M 7.1875 0 "/></g></g></g><g fill="#c197d2" fill-opacity="1"><g transform="translate(357.126635, 90.709008)"><g><path d="M 7.6875 0 L 7.6875 -7.34375 L 39.40625 -7.34375 L 44.125 -12.140625 L 44.125 -25 L 39.40625 -29.796875 L 14.5 -29.796875 L 5.421875 -38.890625 L 5.421875 -55.234375 L 14.5 -64.40625 L 48.765625 -64.40625 L 48.765625 -57.0625 L 18.09375 -57.0625 L 13.28125 -52.265625 L 13.375 -41.59375 L 18.09375 -36.796875 L 43 -36.796875 L 52.078125 -27.609375 L 52.078125 -9.171875 L 43 0 Z M 7.6875 0 "/></g></g></g><g fill="#c197d2" fill-opacity="1"><g transform="translate(414.619566, 90.709008)"><g><path d="M 15.296875 0 L 6.125 -9.171875 L 6.125 -36.53125 L 15.296875 -45.703125 L 36.1875 -45.703125 L 44.21875 -37.75 L 44.21875 -30.5 L 36.53125 -30.5 L 36.53125 -35.21875 L 32.15625 -39.59375 L 18.609375 -39.59375 L 13.8125 -34.78125 L 13.8125 -11.265625 L 18.609375 -6.375 L 43.78125 -6.375 L 43.78125 0 Z M 15.296875 0 "/></g></g></g><g fill="#c197d2" fill-opacity="1"><g transform="translate(463.462343, 90.709008)"><g><path d="M 7.171875 0 L 7.171875 -64.40625 L 14.859375 -64.40625 L 14.859375 -38.453125 L 21.84375 -45.703125 L 38.71875 -45.703125 L 47.796875 -36.53125 L 47.796875 0 L 40.109375 0 L 40.109375 -34.609375 L 35.484375 -39.59375 L 23.859375 -39.59375 L 14.859375 -30.40625 L 14.859375 0 Z M 7.171875 0 "/></g></g></g><g fill="#c197d2" fill-opacity="1"><g transform="translate(517.984509, 90.709008)"><g><path d="M 57.328125 0 L 46.84375 0 L 36.609375 -33.734375 L 26.390625 0 L 15.90625 0 L 1.140625 -45.703125 L 9.265625 -45.703125 L 20.09375 -7.6875 L 22.109375 -7.6875 L 32.328125 -45.703125 L 40.8125 -45.703125 L 51.03125 -7.6875 L 53.046875 -7.6875 L 63.96875 -45.703125 L 72.015625 -45.703125 Z M 57.328125 0 "/></g></g></g><g fill="#c197d2" fill-opacity="1"><g transform="translate(591.204978, 90.709008)"><g><path d="M 12.140625 0 L 3.0625 -9.171875 L 3.0625 -19.578125 L 12.140625 -28.75 L 35.390625 -28.75 L 35.390625 -34.4375 L 30.671875 -39.234375 L 9 -39.234375 L 9 -45.703125 L 34 -45.703125 L 43.078125 -36.53125 L 43.078125 0 L 35.390625 0 L 35.390625 -7.078125 L 28.3125 0 Z M 15.5625 -6.125 L 26.390625 -6.125 L 35.390625 -15.03125 L 35.390625 -22.71875 L 15.5625 -22.640625 L 10.75 -17.921875 L 10.75 -10.921875 Z M 15.5625 -6.125 "/></g></g></g><g fill="#c197d2" fill-opacity="1"><g transform="translate(641.008871, 90.709008)"><g><path d="M 7.171875 0 L 7.171875 -45.703125 L 14.859375 -45.703125 L 14.859375 -37.484375 L 22.8125 -45.703125 L 34.515625 -45.703125 L 34.515625 -38.015625 L 23.15625 -38.015625 L 14.859375 -29.453125 L 14.859375 0 Z M 7.171875 0 "/></g></g></g><g fill="#c197d2" fill-opacity="1"><g transform="translate(676.483222, 90.709008)"><g><path d="M 15.734375 0 L 7.6875 -7.953125 L 7.6875 -39.59375 L 2.890625 -39.59375 L 2.890625 -45.703125 L 7.859375 -45.703125 L 9.78125 -57.421875 L 15.375 -57.421875 L 15.375 -45.703125 L 25.078125 -45.703125 L 25.078125 -39.59375 L 15.375 -39.59375 L 15.375 -10.65625 L 19.484375 -6.375 L 27.09375 -6.375 L 27.09375 0 Z M 15.734375 0 "/></g></g></g><g clip-path="url(#708d867779)"><g fill="#c197d2" fill-opacity="1"><g transform="translate(705.75393, 90.709008)"><g><path d="M 4.625 0 L 4.625 -7.859375 L 33.125 -39.234375 L 6.640625 -39.234375 L 6.640625 -45.703125 L 41.765625 -45.703125 L 41.765625 -37.84375 L 13.28125 -6.375 L 42.46875 -6.375 L 42.46875 0 Z M 4.625 0 "/></g></g></g></g></svg>